<?xml version="1.0" ?><!DOCTYPE svg  PUBLIC '-//W3C//DTD SVG 1.1//EN'  'http://www.w3.org/Graphics/SVG/1.1/DTD/svg11.dtd'><svg enable-background="new 0 0 24 24" height="24px" id="Layer_1" version="1.1" viewBox="0 0 24 24" width="24px" xml:space="preserve" xmlns="http://www.w3.org/2000/svg" xmlns:xlink="http://www.w3.org/1999/xlink"><g><path d="M18.3,14.9c-0.1-0.1-0.3-0.2-0.4-0.3c0,0-0.1-0.1-0.1-0.1c-0.2-0.1-0.3-0.3-0.4-0.5l-2-1.1h-5.2l-2,1.1   c-0.6,0.8-1.5,1.3-2.5,1.3c-0.6,0-1.1-0.2-1.6-0.5c-0.7-0.4-1.2-1.1-1.4-1.9s0-1.6,0.4-2.3L5.9,6C6,5.9,6,5.9,6,5.8   c0.9-1.3,2.3-2.1,3.8-2.1h0.3L6.1,1.4C5.7,1.1,5.2,1,4.8,1S3.8,1.1,3.4,1.4C2.6,1.8,2.1,2.7,2.1,3.6v16.7c0,0.9,0.5,1.8,1.3,2.3   c0.8,0.5,1.8,0.5,2.6,0L19,15.2c-0.2-0.1-0.4-0.1-0.6-0.2C18.4,14.9,18.4,14.9,18.3,14.9z"/><path d="M21.9,12.1c0-0.2,0-0.3-0.1-0.5c0,0,0,0,0,0c0-0.2-0.1-0.3-0.2-0.5l-0.8-1.3l0,0l-2.1-3.3c0,0-0.1-0.1-0.1-0.1   c-0.7-1-1.8-1.7-3-1.7h-3.5h0H9.9c-1.2,0-2.3,0.6-3,1.6c0,0-0.1,0.1-0.1,0.1l-2.9,4.6c-0.3,0.5-0.4,1-0.3,1.6   c0.1,0.5,0.4,1,0.9,1.3c0.9,0.6,2.3,0.3,2.8-0.6c0-0.1,0.1-0.1,0.2-0.2l2.2-1.3c0.1,0,0.2-0.1,0.2-0.1h5.5c0.1,0,0.2,0,0.2,0.1   l2.2,1.3c0.1,0,0.1,0.1,0.2,0.2c0.1,0.1,0.2,0.2,0.3,0.3c0.1,0.1,0.1,0.1,0.2,0.2c0,0,0.1,0,0.1,0.1c0.4,0.3,0.9,0.4,1.4,0.3   c0.1,0,0.1,0,0.2,0c0.1,0,0.2,0,0.2-0.1c0.2-0.1,0.3-0.1,0.4-0.2c0.1-0.1,0.2-0.1,0.3-0.2c0,0,0,0,0,0c0.3-0.3,0.5-0.6,0.6-1.1   C21.9,12.5,21.9,12.3,21.9,12.1L21.9,12.1z M10.7,8.6H9.9v0.8c0,0.3-0.2,0.5-0.5,0.5S8.9,9.7,8.9,9.4V8.6H8c-0.3,0-0.5-0.2-0.5-0.5   c0-0.3,0.2-0.5,0.5-0.5h0.8V6.7c0-0.3,0.2-0.5,0.5-0.5s0.5,0.2,0.5,0.5v0.8h0.8c0.3,0,0.5,0.2,0.5,0.5C11.2,8.3,11,8.6,10.7,8.6z    M15,8.6h-0.3c-0.3,0-0.5-0.2-0.5-0.5c0-0.3,0.2-0.5,0.5-0.5H15c0.3,0,0.5,0.2,0.5,0.5C15.5,8.3,15.3,8.6,15,8.6z M16.9,9.7   c0,0.3-0.2,0.5-0.5,0.5s-0.5-0.2-0.5-0.5V9.4c0-0.3,0.2-0.5,0.5-0.5s0.5,0.2,0.5,0.5V9.7z M16.9,6.7c0,0.3-0.2,0.5-0.5,0.5   S15.9,7,15.9,6.7V6.4c0-0.3,0.2-0.5,0.5-0.5s0.5,0.2,0.5,0.5V6.7z M18,8.6h-0.3c-0.3,0-0.5-0.2-0.5-0.5c0-0.3,0.2-0.5,0.5-0.5H18   c0.3,0,0.5,0.2,0.5,0.5C18.5,8.3,18.3,8.6,18,8.6z"/></g></svg>